<mxfile host="Electron" agent="Mozilla/5.0 (Windows NT 10.0; Win64; x64) AppleWebKit/537.36 (KHTML, like Gecko) draw.io/25.0.1 Chrome/128.0.6613.186 Electron/32.2.6 Safari/537.36" version="25.0.1">
  <diagram name="Page-1" id="sgQzktkUp-9MHFvGvhtm">
    <mxGraphModel dx="1036" dy="702" grid="1" gridSize="10" guides="1" tooltips="1" connect="1" arrows="1" fold="1" page="1" pageScale="1" pageWidth="850" pageHeight="1100" math="0" shadow="0">
      <root>
        <mxCell id="0" />
        <mxCell id="1" parent="0" />
        <mxCell id="Q2D4iK-SIeuVyJugIBwV-7" value="" style="endArrow=none;html=1;rounded=0;strokeWidth=3;strokeColor=#FFF1E8;entryX=1;entryY=0.5;entryDx=0;entryDy=0;startArrow=oval;startFill=1;startSize=13;exitX=1;exitY=0.5;exitDx=0;exitDy=0;" edge="1" parent="1" source="Q2D4iK-SIeuVyJugIBwV-33" target="Q2D4iK-SIeuVyJugIBwV-13">
          <mxGeometry width="50" height="50" relative="1" as="geometry">
            <mxPoint x="309" y="130" as="sourcePoint" />
            <mxPoint x="949.47" y="129.5" as="targetPoint" />
          </mxGeometry>
        </mxCell>
        <mxCell id="Q2D4iK-SIeuVyJugIBwV-8" value="Weak To" style="text;html=1;align=center;verticalAlign=middle;whiteSpace=wrap;rounded=0;fontSize=30;fontFamily=Lucida Console;fontColor=#00E436;fontStyle=1" vertex="1" parent="1">
          <mxGeometry x="479.47" y="50" width="150" height="30" as="geometry" />
        </mxCell>
        <mxCell id="Q2D4iK-SIeuVyJugIBwV-9" value="About" style="text;html=1;align=center;verticalAlign=middle;whiteSpace=wrap;rounded=0;fontSize=30;fontFamily=Lucida Console;fontColor=#FFF1E8;fontStyle=1" vertex="1" parent="1">
          <mxGeometry x="334.47" y="50" width="110" height="30" as="geometry" />
        </mxCell>
        <mxCell id="Q2D4iK-SIeuVyJugIBwV-10" value="Resists" style="text;html=1;align=center;verticalAlign=middle;whiteSpace=wrap;rounded=0;fontSize=30;fontFamily=Lucida Console;fontColor=#FF77A8;fontStyle=1" vertex="1" parent="1">
          <mxGeometry x="635.47" y="50" width="150" height="30" as="geometry" />
        </mxCell>
        <mxCell id="Q2D4iK-SIeuVyJugIBwV-11" value="Basic attacker. Walks to your base to steal your hearts!" style="text;html=1;align=left;verticalAlign=middle;whiteSpace=wrap;rounded=1;fontSize=9;fontFamily=Lucida Console;fontColor=#FFF1E8;strokeColor=#FFF1E8;strokeWidth=2;fillColor=#1D2B53;spacingLeft=3;spacingRight=3;" vertex="1" parent="1">
          <mxGeometry x="329.47" y="90" width="120" height="80" as="geometry" />
        </mxCell>
        <mxCell id="Q2D4iK-SIeuVyJugIBwV-12" value="None" style="text;html=1;align=center;verticalAlign=middle;whiteSpace=wrap;rounded=1;fontSize=13;fontFamily=Lucida Console;fontColor=#00E436;strokeColor=#00E436;strokeWidth=2;fillColor=#1D2B53;fontStyle=1" vertex="1" parent="1">
          <mxGeometry x="490.47" y="90" width="120" height="80" as="geometry" />
        </mxCell>
        <mxCell id="Q2D4iK-SIeuVyJugIBwV-13" value="None" style="text;html=1;align=center;verticalAlign=middle;whiteSpace=wrap;rounded=1;fontSize=13;fontFamily=Lucida Console;fontColor=#FF77A8;strokeColor=#FF77A8;strokeWidth=2;labelBackgroundColor=none;fillColor=#1D2B53;fontStyle=1" vertex="1" parent="1">
          <mxGeometry x="650.47" y="90" width="120" height="80" as="geometry" />
        </mxCell>
        <mxCell id="Q2D4iK-SIeuVyJugIBwV-14" value="" style="endArrow=none;html=1;rounded=0;strokeWidth=3;strokeColor=#FFF1E8;entryX=1;entryY=0.5;entryDx=0;entryDy=0;startArrow=oval;startFill=1;startSize=13;exitX=1;exitY=0.5;exitDx=0;exitDy=0;" edge="1" parent="1" source="Q2D4iK-SIeuVyJugIBwV-34" target="Q2D4iK-SIeuVyJugIBwV-20">
          <mxGeometry width="50" height="50" relative="1" as="geometry">
            <mxPoint x="309.47" y="249.5" as="sourcePoint" />
            <mxPoint x="948.94" y="249.5" as="targetPoint" />
          </mxGeometry>
        </mxCell>
        <mxCell id="Q2D4iK-SIeuVyJugIBwV-15" value="" style="endArrow=none;html=1;rounded=0;strokeWidth=3;strokeColor=#FFF1E8;entryX=1;entryY=0.5;entryDx=0;entryDy=0;startArrow=oval;startFill=1;startSize=13;exitX=1;exitY=0.5;exitDx=0;exitDy=0;" edge="1" parent="1" source="Q2D4iK-SIeuVyJugIBwV-35" target="Q2D4iK-SIeuVyJugIBwV-23">
          <mxGeometry width="50" height="50" relative="1" as="geometry">
            <mxPoint x="309.47" y="369.5" as="sourcePoint" />
            <mxPoint x="947.9000000000001" y="369.5" as="targetPoint" />
          </mxGeometry>
        </mxCell>
        <mxCell id="Q2D4iK-SIeuVyJugIBwV-18" value="&lt;font color=&quot;#fff1e8&quot;&gt;Extra &lt;b&gt;fast&lt;/b&gt;! But lower health. Watch out for &lt;i&gt;stronger&lt;/i&gt;&lt;/font&gt; &lt;font color=&quot;#ff004d&quot;&gt;red variants&lt;/font&gt;&lt;font color=&quot;#fff1e8&quot;&gt;!&lt;/font&gt;" style="text;html=1;align=left;verticalAlign=middle;whiteSpace=wrap;rounded=1;fontSize=9;fontFamily=Lucida Console;fontColor=#29ADFF;strokeColor=#FFF1E8;strokeWidth=2;fillColor=#1D2B53;spacingLeft=3;spacingRight=3;" vertex="1" parent="1">
          <mxGeometry x="329.47" y="210" width="120" height="80" as="geometry" />
        </mxCell>
        <mxCell id="Q2D4iK-SIeuVyJugIBwV-19" value="Pixel" style="text;html=1;align=center;verticalAlign=middle;whiteSpace=wrap;rounded=1;fontSize=13;fontFamily=Lucida Console;fontColor=#00E436;strokeColor=#00E436;strokeWidth=2;fillColor=#1D2B53;fontStyle=1" vertex="1" parent="1">
          <mxGeometry x="490.47" y="210" width="120" height="80" as="geometry" />
        </mxCell>
        <mxCell id="Q2D4iK-SIeuVyJugIBwV-20" value="Laser" style="text;html=1;align=center;verticalAlign=middle;whiteSpace=wrap;rounded=1;fontSize=13;fontFamily=Lucida Console;fontColor=#FF77A8;strokeColor=#FF77A8;strokeWidth=2;labelBackgroundColor=none;fillColor=#1D2B53;fontStyle=1" vertex="1" parent="1">
          <mxGeometry x="650.47" y="210" width="120" height="80" as="geometry" />
        </mxCell>
        <mxCell id="Q2D4iK-SIeuVyJugIBwV-21" value="&lt;font color=&quot;#fff1e8&quot;&gt;&lt;b&gt;Extra health&lt;/b&gt;! But slower. Sometimes&lt;/font&gt; &lt;font color=&quot;#00e436&quot;&gt;Lizards&lt;/font&gt;&lt;font color=&quot;#fff1e8&quot;&gt; pretend to be them for &lt;i&gt;faster versions&lt;/i&gt;!&lt;/font&gt;" style="text;html=1;align=left;verticalAlign=middle;whiteSpace=wrap;rounded=1;fontSize=9;fontFamily=Lucida Console;fontColor=#29ADFF;strokeColor=#FFF1E8;strokeWidth=2;fillColor=#1D2B53;spacingLeft=3;spacingRight=3;" vertex="1" parent="1">
          <mxGeometry x="329.47" y="330" width="120" height="80" as="geometry" />
        </mxCell>
        <mxCell id="Q2D4iK-SIeuVyJugIBwV-22" value="Laser" style="text;html=1;align=center;verticalAlign=middle;whiteSpace=wrap;rounded=1;fontSize=13;fontFamily=Lucida Console;fontColor=#00E436;strokeColor=#00E436;strokeWidth=2;fillColor=#1D2B53;fontStyle=1" vertex="1" parent="1">
          <mxGeometry x="490.47" y="330" width="120" height="80" as="geometry" />
        </mxCell>
        <mxCell id="Q2D4iK-SIeuVyJugIBwV-23" value="Bomb and&lt;div&gt;Splash&lt;/div&gt;" style="text;html=1;align=center;verticalAlign=middle;whiteSpace=wrap;rounded=1;fontSize=13;fontFamily=Lucida Console;fontColor=#FF77A8;strokeColor=#FF77A8;strokeWidth=2;labelBackgroundColor=none;fillColor=#1D2B53;fontStyle=1" vertex="1" parent="1">
          <mxGeometry x="650.47" y="330" width="120" height="80" as="geometry" />
        </mxCell>
        <mxCell id="Q2D4iK-SIeuVyJugIBwV-24" value="" style="endArrow=none;html=1;rounded=0;strokeWidth=3;strokeColor=#FFF1E8;entryX=1;entryY=0.5;entryDx=0;entryDy=0;startArrow=oval;startFill=1;startSize=13;exitX=1;exitY=0.5;exitDx=0;exitDy=0;" edge="1" parent="1" target="Q2D4iK-SIeuVyJugIBwV-27" source="Q2D4iK-SIeuVyJugIBwV-37">
          <mxGeometry width="50" height="50" relative="1" as="geometry">
            <mxPoint x="309.47" y="489.5" as="sourcePoint" />
            <mxPoint x="947.9000000000001" y="489.5" as="targetPoint" />
          </mxGeometry>
        </mxCell>
        <mxCell id="Q2D4iK-SIeuVyJugIBwV-25" value="&lt;font color=&quot;#fff1e8&quot;&gt;Slower and less health, but &lt;b&gt;flies directly over towers&lt;/b&gt;! &lt;/font&gt;&lt;font color=&quot;#00e436&quot;&gt;Green Bats&lt;/font&gt; &lt;font color=&quot;#fff1e8&quot;&gt;are &lt;i&gt;extra dangerous&lt;/i&gt;...&lt;/font&gt;" style="text;html=1;align=left;verticalAlign=middle;whiteSpace=wrap;rounded=1;fontSize=9;fontFamily=Lucida Console;fontColor=#29ADFF;strokeColor=#FFF1E8;strokeWidth=2;fillColor=#1D2B53;spacingLeft=3;spacingRight=3;" vertex="1" parent="1">
          <mxGeometry x="329.47" y="450" width="120" height="80" as="geometry" />
        </mxCell>
        <mxCell id="Q2D4iK-SIeuVyJugIBwV-26" value="Bomb and&lt;div&gt;Splash&lt;/div&gt;" style="text;html=1;align=center;verticalAlign=middle;whiteSpace=wrap;rounded=1;fontSize=13;fontFamily=Lucida Console;fontColor=#00E436;strokeColor=#00E436;strokeWidth=2;fillColor=#1D2B53;fontStyle=1" vertex="1" parent="1">
          <mxGeometry x="490.47" y="450" width="120" height="80" as="geometry" />
        </mxCell>
        <mxCell id="Q2D4iK-SIeuVyJugIBwV-27" value="Pixel" style="text;html=1;align=center;verticalAlign=middle;whiteSpace=wrap;rounded=1;fontSize=13;fontFamily=Lucida Console;fontColor=#FF77A8;strokeColor=#FF77A8;strokeWidth=2;labelBackgroundColor=none;fillColor=#1D2B53;fontStyle=1" vertex="1" parent="1">
          <mxGeometry x="650.47" y="450" width="120" height="80" as="geometry" />
        </mxCell>
        <mxCell id="Q2D4iK-SIeuVyJugIBwV-28" value="" style="endArrow=none;html=1;rounded=0;strokeWidth=3;strokeColor=#FFF1E8;entryX=1;entryY=0.5;entryDx=0;entryDy=0;startArrow=oval;startFill=1;startSize=13;exitX=1;exitY=0.5;exitDx=0;exitDy=0;" edge="1" parent="1" target="Q2D4iK-SIeuVyJugIBwV-31" source="Q2D4iK-SIeuVyJugIBwV-36">
          <mxGeometry width="50" height="50" relative="1" as="geometry">
            <mxPoint x="309.47" y="609.5" as="sourcePoint" />
            <mxPoint x="947.9000000000001" y="609.5" as="targetPoint" />
          </mxGeometry>
        </mxCell>
        <mxCell id="Q2D4iK-SIeuVyJugIBwV-29" value="&lt;font color=&quot;#fff1e8&quot;&gt;&lt;b&gt;More health&lt;/b&gt; and &lt;b&gt;faster&lt;/b&gt;. &lt;/font&gt;&lt;font color=&quot;#ffa300&quot;&gt;Chickens&lt;/font&gt;&lt;font color=&quot;#fff1e8&quot;&gt; are &lt;b&gt;&lt;i&gt;elite&lt;/i&gt;&lt;/b&gt; and can fly short distances!&lt;/font&gt; &lt;font color=&quot;#ff004d&quot;&gt;Roosters&lt;/font&gt; &lt;font color=&quot;#fff1e8&quot;&gt;have &lt;i&gt;even more&lt;/i&gt; health!&lt;/font&gt;" style="text;html=1;align=left;verticalAlign=middle;whiteSpace=wrap;rounded=1;fontSize=9;fontFamily=Lucida Console;fontColor=#29ADFF;strokeColor=#FFF1E8;strokeWidth=2;fillColor=#1D2B53;spacingLeft=3;spacingRight=3;" vertex="1" parent="1">
          <mxGeometry x="329.47" y="570" width="120" height="80" as="geometry" />
        </mxCell>
        <mxCell id="Q2D4iK-SIeuVyJugIBwV-30" value="Pixel" style="text;html=1;align=center;verticalAlign=middle;whiteSpace=wrap;rounded=1;fontSize=13;fontFamily=Lucida Console;fontColor=#00E436;strokeColor=#00E436;strokeWidth=2;fillColor=#1D2B53;fontStyle=1" vertex="1" parent="1">
          <mxGeometry x="490.47" y="570" width="120" height="80" as="geometry" />
        </mxCell>
        <mxCell id="Q2D4iK-SIeuVyJugIBwV-31" value="Laser" style="text;html=1;align=center;verticalAlign=middle;whiteSpace=wrap;rounded=1;fontSize=13;fontFamily=Lucida Console;fontColor=#FF77A8;strokeColor=#FF77A8;strokeWidth=2;labelBackgroundColor=none;fillColor=#1D2B53;fontStyle=1" vertex="1" parent="1">
          <mxGeometry x="650.47" y="570" width="120" height="80" as="geometry" />
        </mxCell>
        <mxCell id="Q2D4iK-SIeuVyJugIBwV-33" value="Walker" style="text;html=1;align=right;verticalAlign=middle;whiteSpace=wrap;rounded=1;fontSize=30;fontFamily=Lucida Console;fontColor=#FFEC27;fontStyle=1;fillColor=#1D2B53;strokeColor=default;strokeWidth=2;spacingRight=8;" vertex="1" parent="1">
          <mxGeometry x="10" y="110" width="160" height="40" as="geometry" />
        </mxCell>
        <mxCell id="Q2D4iK-SIeuVyJugIBwV-34" value="Lizard" style="text;html=1;align=right;verticalAlign=middle;whiteSpace=wrap;rounded=1;fontSize=30;fontFamily=Lucida Console;fontColor=#00E436;fontStyle=1;fillColor=#1D2B53;strokeColor=default;strokeWidth=2;spacingRight=8;" vertex="1" parent="1">
          <mxGeometry x="10" y="230" width="160" height="40" as="geometry" />
        </mxCell>
        <mxCell id="Q2D4iK-SIeuVyJugIBwV-35" value="Knight" style="text;html=1;align=right;verticalAlign=middle;whiteSpace=wrap;rounded=1;fontSize=30;fontFamily=Lucida Console;fontColor=#C2C3C7;fontStyle=1;fillColor=#1D2B53;strokeColor=#FFF1E8;strokeWidth=2;spacingRight=8;" vertex="1" parent="1">
          <mxGeometry x="10" y="350" width="160" height="40" as="geometry" />
        </mxCell>
        <mxCell id="Q2D4iK-SIeuVyJugIBwV-36" value="Chicken" style="text;html=1;align=right;verticalAlign=middle;whiteSpace=wrap;rounded=1;fontSize=30;fontFamily=Lucida Console;fontColor=#FFA300;fontStyle=1;fillColor=#1D2B53;strokeColor=default;strokeWidth=3;spacingRight=8;" vertex="1" parent="1">
          <mxGeometry x="10" y="590" width="160" height="40" as="geometry" />
        </mxCell>
        <mxCell id="Q2D4iK-SIeuVyJugIBwV-37" value="Bat" style="text;html=1;align=right;verticalAlign=middle;whiteSpace=wrap;rounded=1;fontSize=30;fontFamily=Lucida Console;fontColor=#FFF1E8;fontStyle=1;fillColor=#1D2B53;strokeColor=default;strokeWidth=2;spacingRight=8;" vertex="1" parent="1">
          <mxGeometry x="10" y="470" width="160" height="40" as="geometry" />
        </mxCell>
        <mxCell id="Q2D4iK-SIeuVyJugIBwV-3" value="" style="shape=image;verticalLabelPosition=bottom;labelBackgroundColor=default;verticalAlign=top;aspect=fixed;imageAspect=0;image=data:image/png,iVBORw0KGgoAAAANSUhEUgAAAeIAAAHgCAYAAAB5IW6oAAAACXBIWXMAABJ0AAASdAHeZh94AAAE7mlUWHRYTUw6Y29tLmFkb2JlLnhtcAAAAAAAPD94cGFja2V0IGJlZ2luPSLvu78iIGlkPSJXNU0wTXBDZWhpSHpyZVN6TlRjemtjOWQiPz4gPHg6eG1wbWV0YSB4bWxuczp4PSJhZG9iZTpuczptZXRhLyIgeDp4bXB0az0iQWRvYmUgWE1QIENvcmUgOS4xLWMwMDIgNzkuYTFjZDEyZiwgMjAyNC8xMS8xMS0xOTowODo0NiAgICAgICAgIj4gPHJkZjpSREYgeG1sbnM6cmRmPSJodHRwOi8vd3d3LnczLm9yZy8xOTk5LzAyLzIyLXJkZi1zeW50YXgtbnMjIj4gPHJkZjpEZXNjcmlwdGlvbiByZGY6YWJvdXQ9IiIgeG1sbnM6eG1wPSJodHRwOi8vbnMuYWRvYmUuY29tL3hhcC8xLjAvIiB4bWxuczpkYz0iaHR0cDovL3B1cmwub3JnL2RjL2VsZW1lbnRzLzEuMS8iIHhtbG5zOnBob3Rvc2hvcD0iaHR0cDovL25zLmFkb2JlLmNvbS9waG90b3Nob3AvMS4wLyIgeG1sbnM6eG1wTU09Imh0dHA6Ly9ucy5hZG9iZS5jb20veGFwLzEuMC9tbS8iIHhtbG5zOnN0RXZ0PSJodHRwOi8vbnMuYWRvYmUuY29tL3hhcC8xLjAvc1R5cGUvUmVzb3VyY2VFdmVudCMiIHhtcDpDcmVhdG9yVG9vbD0iQWRvYmUgUGhvdG9zaG9wIDI2LjIgKFdpbmRvd3MpIiB4bXA6Q3JlYXRlRGF0ZT0iMjAyNC0xMi0xOVQxNjoyNDo1Mi0wNzowMCIgeG1wOk1vZGlmeURhdGU9IjIwMjQtMTItMTlUMTY6Mzk6NDItMDc6MDAiIHhtcDpNZXRhZGF0YURhdGU9IjIwMjQtMTItMTlUMTY6Mzk6NDItMDc6MDAiIGRjOmZvcm1hdD0iaW1hZ2UvcG5nIiBwaG90b3Nob3A6Q29sb3JNb2RlPSIzIiB4bXBNTTpJbnN0YW5jZUlEPSJ4bXAuaWlkOjcxZWY0MTZiLTYxYTctYTQ0Ni05Y2Q1LWY3ZmZiZjVhZjcxOCIgeG1wTU06RG9jdW1lbnRJRD0ieG1wLmRpZDo3MWVmNDE2Yi02MWE3LWE0NDYtOWNkNS1mN2ZmYmY1YWY3MTgiIHhtcE1NOk9yaWdpbmFsRG9jdW1lbnRJRD0ieG1wLmRpZDo3MWVmNDE2Yi02MWE3LWE0NDYtOWNkNS1mN2ZmYmY1YWY3MTgiPiA8eG1wTU06SGlzdG9yeT4gPHJkZjpTZXE+IDxyZGY6bGkgc3RFdnQ6YWN0aW9uPSJjcmVhdGVkIiBzdEV2dDppbnN0YW5jZUlEPSJ4bXAuaWlkOjcxZWY0MTZiLTYxYTctYTQ0Ni05Y2Q1LWY3ZmZiZjVhZjcxOCIgc3RFdnQ6d2hlbj0iMjAyNC0xMi0xOVQxNjoyNDo1Mi0wNzowMCIgc3RFdnQ6c29mdHdhcmVBZ2VudD0iQWRvYmUgUGhvdG9zaG9wIDI2LjIgKFdpbmRvd3MpIi8+IDwvcmRmOlNlcT4gPC94bXBNTTpIaXN0b3J5PiA8L3JkZjpEZXNjcmlwdGlvbj4gPC9yZGY6UkRGPiA8L3g6eG1wbWV0YT4gPD94cGFja2V0IGVuZD0iciI/PjMg3N0AAAhoSURBVHja7dnfa9UFGMfx56zUdK6dtlljWllGRhhRrEiFfh2wurJfVJDrctFV5GV07V0EUZdaEYFYNEhiUHMVZkxdurVNj862MF2Tsk13ztqMOv0VObbn9YLPP3Ce75f3+K6upaWl1tn5Wq3zVTMzs4Xb9mdeqjXetCnN6ou31iKiVtfU1Bwv7+iIHTteMTMzW7Bte3J7TE8OFbJsVeO6oYiIugAAFowQA4AQA4AQAwBCDABCDAAIMQAIMQAgxAAgxACAEAOAEAMAQgwAQgwACDEACDEAIMQAIMQAgBADgBADAEIMAEIMAAgxAAgxAAgxACDEACDEAIAQA4AQAwBCDABCDAAIMQAIMQAgxAAgxACAEAOAEAMAQgwAQgwACDEACDEAIMQAIMQAgBADgBADgBADAEIMAEIMAAgxAAgxACDEACDEAIAQA4AQAwBCDABCDAAIMQAIMQAgxAAgxACAEAOAEAMAQgwAQgwACDEACDEACDEAIMQAIMQAgBADgBADAEIMAEIMAAgxAAgxACDEACDEAIAQA4AQAwBCDABCDAAIMQAIMQAgxAAgxACAEAOAEAMAQgwAQgwAQgwACDEACDEAIMQAIMQAgBADgBADAEIMAEIMAAgxAAgxACDEACDEAIAQA4AQAwBCDABCDAAIMQAIMQAgxAAgxAAgxACAEAOAEAMAQgwAQgwACDEACDEAIMQAIMSLVbVyOQ5/35tmI4P9nnKWjMuXplK9v+Xh444uxEvP7Gw1hgeOpNnY6AlPOUvoD+mZVO/v+JmyowsxACDEACDEAIAQA4AQAwBCDABCDAAIMQAIMQAgxAAgxACAEAOAEAMAQgwAQgwACDEACDEACDEAIMQAIMQAgBADgBADAEIMAEIMAAgxAAgxACDEACDEAIAQA4AQAwBCDABCDAAIMQAIMQAgxAAgxACAEAOAEAOAEPsJAECIAUCIAQAhBgAhBgCEGACEGAAQYgAQYgBAiAFAiAEAIQYAIQYAhBgAhBgAEGIAEGIAQIgBQIgBACEGACHm6lgxeSluf/frNLt+T0/0Hcyzse6eVPdt+7zfS40Qs7gsv1iNtZ8eTbNV+4/EyGB/mk309ae6b8u3ZS81QgwACDEACDEAIMQAIMQAgBADgBADAEIMAEIMAAgxAAgxACDEACDEAIAQA4AQA4AQAwBCDABCDAAIMQAIMQAgxAAgxACAEAOAEAMAQgwAQgwACDEACDEAIMQAIMQAgBADgBADAEIMAEIMAAgxAAgxAAgxACDEACDEAIAQA4AQAwBCDABCDAAIMQAIMQAgxAAgxACAEAOAEAMAQgwAQgwACDEACDEAIMQAIMQAgBADgBADgBADAELM/2GutTF+fn1bmp1/4cFU9/1rbTHVfSeee8BLjRCzuPzdXB8Tz7en2R+P3pXqvldaGnLd95GNXmqEGAAQYgAQYgBAiAFAiAEAIQYAIQYAhBgAhBgAEGIAEGIAQIgBQIgBACEGACEGACEGAIQYAIQYABBiABBiAECIAUCIAQAhBgAhBgCEGACEGAAQYgAQYgBAiAFAiAEAIQYAIQYAhBgAhBgAEGIAEGIAEGIAQIgBQIgBACEGACEGAIQYAIQYABBiABBiAECIAUCIAQAhBgAhBgCEGACEGAAQYgAQYgBAiAFAiAEAIQYAIQYAIQYAFirEF6dm4qO9B+LDvT0p1nf0h+h48UKaPf3U6djQ+nGa3Xfn/lT33f5EOdV977+5Kzo2/ZRmjxX7Yqb3szRrONkbb5RKtSzbWqzcExFRNzMzG7vff6uw+70cOzl6IkoPT6XZlvZz0XbDgTTbsO5wqvtubv811X3vWHMoSuvH0+ze+nLMDh5Ms5VnB2NrsZJmd6+e82kaAPyPGACEGAAQYgAQYgBAiAFAiAEAIQYAIQYAhBgAhBgAEGIAEGIAQIgBQIgBACEGACEGAIQYAIQYABBiABBiAECIAUCIAUCIAQAhBgAhBgCEGACEGAAQYgAQYgBAiAFAiAEAIQYAIQYAhBgAhBgAEGIAEGIAQIgBQIgBACEGACEGAIQYAIQYAITYTwAAQgwAQgwACDEACDEAIMQAIMQAgBADgBADAEIMAEIMAAgxAAgxACDEALC4Qlxc9k/sLD1e21kqpdhDtUoc+2Rlmp3qqosYuZBmlSPTqe771QcN8ebbbWn2zp51cWxgfZqNnmlVqQwhrr/m39hcrMaWYiXFNsZcjH23PM3OHy5EnJ1Os/nT1VT3HehdGbt29Ray7IsDzTE2fmOa/TZZVCmfpgEAIQYAIQYAhBgAhBgAEGIAEGIAQIgBQIgBACEGACEGAIQYAIQYABBiABBiAECIAUCIAUCIAQAhBgAhBgCEGACEGAAQYgAQYgBAiAFAiAEAIQYAIQYAhBgAhBgAEGIAEGIAQIgBQIgBACEGACEGAIQYAIQYAITYTwAAQgwAQgwACDEACDEAIMQAIMQAgBADgBADAEIMAEIMAAgxAAgxACDEACDEAIAQA4AQAwBCDABCDAAIMQAIMVdHtboifjx+W5odGrkl9k02pdk3fzakep5/v3JtV6b72tLewanVQpzB/PyyGP9lTZqdOtcc+w51F7Ksu+/LQqbneXig69lM97WlvXL1uiEhBgCfpgFAiAEAIQYAIQYAhBgAhBgAEGIAEGIAQIgBQIgBACEGACEGAIQYAIQYABBiABBiAECIAUCIAQAhBgAhBgCEGACEGACEGAAQYgAQYgBAiAFAiAEAIQYAIQYAhBgAhBgAEGIAEGIAQIgBQIgBACEGACEGAIQYAIQYABBiABBiAECIAUCIAUCIAQAhBgAhBgCEGACEGAAQYgAQYgBAiAFAiAEAIQYAIQYAhBgAhBgAEGIAWEz+A9PAP1R6KGBPAAAAAElFTkSuQmCC;" vertex="1" parent="1">
          <mxGeometry x="202.24999999999997" y="320" width="100.42" height="100" as="geometry" />
        </mxCell>
        <mxCell id="Q2D4iK-SIeuVyJugIBwV-4" value="" style="shape=image;verticalLabelPosition=bottom;labelBackgroundColor=default;verticalAlign=top;aspect=fixed;imageAspect=0;image=data:image/png,iVBORw0KGgoAAAANSUhEUgAAAeUAAAHhCAYAAABQoaZ0AAAACXBIWXMAABJ0AAASdAHeZh94AAAE7mlUWHRYTUw6Y29tLmFkb2JlLnhtcAAAAAAAPD94cGFja2V0IGJlZ2luPSLvu78iIGlkPSJXNU0wTXBDZWhpSHpyZVN6TlRjemtjOWQiPz4gPHg6eG1wbWV0YSB4bWxuczp4PSJhZG9iZTpuczptZXRhLyIgeDp4bXB0az0iQWRvYmUgWE1QIENvcmUgOS4xLWMwMDIgNzkuYTFjZDEyZiwgMjAyNC8xMS8xMS0xOTowODo0NiAgICAgICAgIj4gPHJkZjpSREYgeG1sbnM6cmRmPSJodHRwOi8vd3d3LnczLm9yZy8xOTk5LzAyLzIyLXJkZi1zeW50YXgtbnMjIj4gPHJkZjpEZXNjcmlwdGlvbiByZGY6YWJvdXQ9IiIgeG1sbnM6eG1wPSJodHRwOi8vbnMuYWRvYmUuY29tL3hhcC8xLjAvIiB4bWxuczpkYz0iaHR0cDovL3B1cmwub3JnL2RjL2VsZW1lbnRzLzEuMS8iIHhtbG5zOnBob3Rvc2hvcD0iaHR0cDovL25zLmFkb2JlLmNvbS9waG90b3Nob3AvMS4wLyIgeG1sbnM6eG1wTU09Imh0dHA6Ly9ucy5hZG9iZS5jb20veGFwLzEuMC9tbS8iIHhtbG5zOnN0RXZ0PSJodHRwOi8vbnMuYWRvYmUuY29tL3hhcC8xLjAvc1R5cGUvUmVzb3VyY2VFdmVudCMiIHhtcDpDcmVhdG9yVG9vbD0iQWRvYmUgUGhvdG9zaG9wIDI2LjIgKFdpbmRvd3MpIiB4bXA6Q3JlYXRlRGF0ZT0iMjAyNC0xMi0xOVQxNjoyNTo1OC0wNzowMCIgeG1wOk1vZGlmeURhdGU9IjIwMjQtMTItMTlUMTY6NDE6NDUtMDc6MDAiIHhtcDpNZXRhZGF0YURhdGU9IjIwMjQtMTItMTlUMTY6NDE6NDUtMDc6MDAiIGRjOmZvcm1hdD0iaW1hZ2UvcG5nIiBwaG90b3Nob3A6Q29sb3JNb2RlPSIzIiB4bXBNTTpJbnN0YW5jZUlEPSJ4bXAuaWlkOmFhYjZiZDM3LTI4ODMtY2U0My1hNjI5LWE0MWUzMzk3NWVkYSIgeG1wTU06RG9jdW1lbnRJRD0ieG1wLmRpZDphYWI2YmQzNy0yODgzLWNlNDMtYTYyOS1hNDFlMzM5NzVlZGEiIHhtcE1NOk9yaWdpbmFsRG9jdW1lbnRJRD0ieG1wLmRpZDphYWI2YmQzNy0yODgzLWNlNDMtYTYyOS1hNDFlMzM5NzVlZGEiPiA8eG1wTU06SGlzdG9yeT4gPHJkZjpTZXE+IDxyZGY6bGkgc3RFdnQ6YWN0aW9uPSJjcmVhdGVkIiBzdEV2dDppbnN0YW5jZUlEPSJ4bXAuaWlkOmFhYjZiZDM3LTI4ODMtY2U0My1hNjI5LWE0MWUzMzk3NWVkYSIgc3RFdnQ6d2hlbj0iMjAyNC0xMi0xOVQxNjoyNTo1OC0wNzowMCIgc3RFdnQ6c29mdHdhcmVBZ2VudD0iQWRvYmUgUGhvdG9zaG9wIDI2LjIgKFdpbmRvd3MpIi8+IDwvcmRmOlNlcT4gPC94bXBNTTpIaXN0b3J5PiA8L3JkZjpEZXNjcmlwdGlvbj4gPC9yZGY6UkRGPiA8L3g6eG1wbWV0YT4gPD94cGFja2V0IGVuZD0iciI/PuZDTQUAAAkJSURBVHja7dhLiFZ1HMfh35nRGS+TeZ1Ljg6m0V0XmWASREQkapcxkoIiSscJg7DCrqQtgqSNhTlhrqQWUVgZUWQLdy6yoFqYiTUmjsyYNxwbb3V6g3ZtQtBx3t/zwJd3f/7nPR/OqSnLMsyqZdFaX8bzrWY2FLdkUpn9GVYTUE1ahkc8eYWZDcXdMz79I0yUAUCUAQBRBgBRBgBEGQBEGQAQZQAQZQBAlAFAlAEAUQYAUQYARBkARBkAEGUAEGUAQJQBQJQBAFEGAFEGAEQZAEQZABBlAECUAUCUAQBRBgBRBgBEGQBEGQAQZQAQZQBAlAFAlAEAUQYAUQYARBkARBkAEGUAEGUAQJQBQJQBAFEGAFEGAEQZABBlABBlAECUAUCUAQBRBgBRBgBEGQBEGQAQZQAQZQBAlAFAlAEAUQYAUQYARJnzVLTWl8XLU9MsHmlKdb7Tappibf2jedazINa+1pBmy94fmeuBNW1EZHpeFQ82lqKcTVNdxBMteXbfhFTHO6WYGKvq2vPs0G2xqmt0mi35bESu59WU+lzPqwXjvSkDgM/XAIAoA4AoAwCiDACiDACIMgCIMgAgygAgygCAKAOAKAMAogwAogwAiDIAiDIAIMoAIMoAgCgDAKIMAKIMAIgyAIgyACDKACDKAIAoA4AoAwCiDACiDACIMgCIMgAgygAgygCAKAOAKAMAogwAogwAiDIAiDIAIMoAIMouAQCIMgAgygAgygCAKAOAKAMAogwAogwAiDIAiDIAIMoAIMoAgCgDgCgDAKIMAKIMAIgyAIgyACDKF04xub4sVrelWTzW5C6vZt2HIl76MM82bXfmiHJVmTQ8oqM5z+6d4C6vZj3HItZ/lWcf73TmiDIAIMoAIMoAgCgDgCgDAKIMAKLsEgCAKAMAogwAogwAiDIAiDIAIMoAIMoAgCgDgCgDAKIMAKIMAIgyAIgyACDKACDKAIAoA4AoAwCiDACiDACIMgCIMgAgygCAKAOAKAMAogwAogwAiDIAiDIAIMoAIMoAgCgDgCgDAKIMAKIMAIgyAIgyACDKACDKAIAoA4AoAwCiDACiDACIMgAgygAgygCAKAOAKAMAogwAogwAiDIAiDIAIMr/y8naiJ2XW7Xup4ZUt/PetnOxcs2JPHtmIFYurEmzDY1nItb8ZtW69/pEOU5Voryrwap13SNT3c4Hmv+KdUv/yLOHTse6eTVptmX82SjfPVhYle7LI4UoA4DP1wCAKAOAKAMAogwAogwAiDIAiDIAIMoAIMoAgCgDgCgDAKIMAKIMAIgyAIgyACDKACDKAIAoAwCiDACiDACIMgCIMgAgygAgygCAKAOAKAMAogwAogwAiDIAiDIAIMoAIMoAgCgDgCgDAKIMAKIMAIgyAIgyACDKACDKAIAoAwCiDACiDACIMgCIMgAgygAgygCAKAOAKAMAogwAogwAiDIAiDIAIMoAIMoAgCgDgCgDABcxysXYUWuKu2eVWRa3zsh1wg1/Rtx8PM+u7fevrmaXnct1P88rItPzuZg7vfSmPLp+dcydHnFLks1szXXCIypRvqY/z9oGhKuajUp2P98YeZ7N/+y6Fm/K/uUAIMoAgCgDgCgDAKIMAKIMAIgyAIgyACDKACDKAIAoA4AoAwCiDACiDACIMgCIMgAgygAgygCAKAOAKAMAogwAogwAiDIAIMoAIMoAgCgDgCgDAKIMAKIMAIgyAIgyACDKACDKAIAoA4AoAwCiDACiDACIMgCIMgAgygAgygCAKAOAKAMAogwAiDIAiDIAIMoAIMoAgCgDgCgDAKIMAKIMAIgyAIgyACDKACDKAIAoA4AoAwAXMMrHB2bF1u8jPk2yb3dFzDmWZ9f3u8upGlcNnIr1P+9Ls2d7a6O5cVme3fB0tHS8XWbZ+Pkryv9Euew/9UO5Y2+RZbFnf8TVJ/Ns6oAnOVVj8ukzseJAb5otPl4b48bOz7O29hh314o0a5i90OdrALh0P18DAKIMAIgyAIgyACDKACDKAIAoA4AoAwCiDACiDACIMgCIMgAgygAgygCAKAOAKAMAogwAogwAiDIAiDIAIMoAIMoAgCgDAKIMAKIMAIgyAIgyACDKACDKAIAoA4AoAwCiDACiDACIMgCIMgAgygAgygCAKAOAKAMAogwAogwAiDIAiDIAIMoAgCgDgCgDAKIMAKIMAIgyAIgyACDKACDKAMB5RbkoihEuAwBcGm/KcyphrnUpAGDwo/xwZS0uBQAMfpRvr+yOyttyncsBAIMb5dbKFv37CwAMVpSHT5xa19zR1d68vGtvS+c7ZbWvecGb0fzrc2k2+5cHomt3d5q9uKc21flO2LE44oXuNOveNCZeretKs83DnlKpbFGuHTMxxt25vLLOHLvp8RjX155mM3rnRWdPX5rd31OT6nwbds+NcnNvkWV920bFB8M602x77SKVSvj5GgAQZQBAlAFAlAEAUQYAUQYARBkARBkAEGUAEGUAQJQBQJQBAFEGAFEGAEQZAEQZABBlABBlAECUAUCUAQBRBgBRBgBEGQAQZQAQZQBAlAFAlAEAUQYAUQYARBkARBkAEGUAEGUAQJQBQJQBAFEGAFEGAEQZAEQZABBlABBlAECUAUCUAQBRBgBEGQBEGQAQZQAQZQBAlAFAlAEAUQYAUQYARBkARBkAEGUAEGUAQJQBQJQBAFHmPOwvroxX6jam2YbDi+NgV0eaHf7kjVT385me3T9mOl+r7h39/C1RzuZI0RgfDVuWZl+fmBNHt20ssuzEN1uLTPfz2SM9MzOdr1X5//e7LwpRBgCfrwEAUQYAUQYARBkARBkAEGUAEGUAQJQBQJQBAFEGAFEGAEQZAEQZABBlABBlAECUAUCUAQBRBgBEGQBEGQAQZQAQZQBAlAFAlAEAUQYAUQYARBkARBkAEGUAEGUAQJQBQJQBAFEGAFEGAEQZAEQZABBlABBlAECUAUCUAQBRBgBEGQBEGQAQZQAQZQBAlAFAlAEAUQYAUQYARBkARBkAEGUAEGUAQJQBQJQBAFEGAFEGAC5ilM8e2hcHu5bGwQ1mQ3+/b3ndvxoYsv4G4UxoAqAVsJcAAAAASUVORK5CYII=;" vertex="1" parent="1">
          <mxGeometry x="201.42" y="190" width="100.83" height="100" as="geometry" />
        </mxCell>
        <mxCell id="Q2D4iK-SIeuVyJugIBwV-5" value="" style="shape=image;verticalLabelPosition=bottom;labelBackgroundColor=default;verticalAlign=top;aspect=fixed;imageAspect=0;image=data:image/png,iVBORw0KGgoAAAANSUhEUgAAAd8AAAHgCAYAAADkLGcgAAAACXBIWXMAABJ0AAASdAHeZh94AAAE7mlUWHRYTUw6Y29tLmFkb2JlLnhtcAAAAAAAPD94cGFja2V0IGJlZ2luPSLvu78iIGlkPSJXNU0wTXBDZWhpSHpyZVN6TlRjemtjOWQiPz4gPHg6eG1wbWV0YSB4bWxuczp4PSJhZG9iZTpuczptZXRhLyIgeDp4bXB0az0iQWRvYmUgWE1QIENvcmUgOS4xLWMwMDIgNzkuYTFjZDEyZiwgMjAyNC8xMS8xMS0xOTowODo0NiAgICAgICAgIj4gPHJkZjpSREYgeG1sbnM6cmRmPSJodHRwOi8vd3d3LnczLm9yZy8xOTk5LzAyLzIyLXJkZi1zeW50YXgtbnMjIj4gPHJkZjpEZXNjcmlwdGlvbiByZGY6YWJvdXQ9IiIgeG1sbnM6eG1wPSJodHRwOi8vbnMuYWRvYmUuY29tL3hhcC8xLjAvIiB4bWxuczpkYz0iaHR0cDovL3B1cmwub3JnL2RjL2VsZW1lbnRzLzEuMS8iIHhtbG5zOnBob3Rvc2hvcD0iaHR0cDovL25zLmFkb2JlLmNvbS9waG90b3Nob3AvMS4wLyIgeG1sbnM6eG1wTU09Imh0dHA6Ly9ucy5hZG9iZS5jb20veGFwLzEuMC9tbS8iIHhtbG5zOnN0RXZ0PSJodHRwOi8vbnMuYWRvYmUuY29tL3hhcC8xLjAvc1R5cGUvUmVzb3VyY2VFdmVudCMiIHhtcDpDcmVhdG9yVG9vbD0iQWRvYmUgUGhvdG9zaG9wIDI2LjIgKFdpbmRvd3MpIiB4bXA6Q3JlYXRlRGF0ZT0iMjAyNC0xMi0xOVQxNjoyNDoyNC0wNzowMCIgeG1wOk1vZGlmeURhdGU9IjIwMjQtMTItMTlUMTY6NDY6MjktMDc6MDAiIHhtcDpNZXRhZGF0YURhdGU9IjIwMjQtMTItMTlUMTY6NDY6MjktMDc6MDAiIGRjOmZvcm1hdD0iaW1hZ2UvcG5nIiBwaG90b3Nob3A6Q29sb3JNb2RlPSIzIiB4bXBNTTpJbnN0YW5jZUlEPSJ4bXAuaWlkOmNlN2E4OGM2LThlYzUtYzA0Ni1hZDU5LWMwZWQ5YTZjOWQ1YiIgeG1wTU06RG9jdW1lbnRJRD0ieG1wLmRpZDpjZTdhODhjNi04ZWM1LWMwNDYtYWQ1OS1jMGVkOWE2YzlkNWIiIHhtcE1NOk9yaWdpbmFsRG9jdW1lbnRJRD0ieG1wLmRpZDpjZTdhODhjNi04ZWM1LWMwNDYtYWQ1OS1jMGVkOWE2YzlkNWIiPiA8eG1wTU06SGlzdG9yeT4gPHJkZjpTZXE+IDxyZGY6bGkgc3RFdnQ6YWN0aW9uPSJjcmVhdGVkIiBzdEV2dDppbnN0YW5jZUlEPSJ4bXAuaWlkOmNlN2E4OGM2LThlYzUtYzA0Ni1hZDU5LWMwZWQ5YTZjOWQ1YiIgc3RFdnQ6d2hlbj0iMjAyNC0xMi0xOVQxNjoyNDoyNC0wNzowMCIgc3RFdnQ6c29mdHdhcmVBZ2VudD0iQWRvYmUgUGhvdG9zaG9wIDI2LjIgKFdpbmRvd3MpIi8+IDwvcmRmOlNlcT4gPC94bXBNTTpIaXN0b3J5PiA8L3JkZjpEZXNjcmlwdGlvbj4gPC9yZGY6UkRGPiA8L3g6eG1wbWV0YT4gPD94cGFja2V0IGVuZD0iciI/PtLNBZ8AAAf5SURBVHja7dhNa1RnGMfh+2knKTWpySjB+lJBJKiVQhGq+EKpFNqCKIIBcdNFV34HobtCcemiVbpy50IQmrYIpSKFFEImuKiLSon0Te3EOIZkSrSmOf0EbmXm3Nf1Df7Pc878hlOqqooMRl9/a+fmsWc/f3yy82oA9Ljf7w/GlW+bDqKmSpb4RkQcnzj2dPLS3KBrB3rd1OxQHP5gtjiJenrJXgAQIwAQX3sBQIzsBUCMAADxBQDxBQDEFwDEFwDEFwAQXwAQXwBAfAFAfAEA8QUA8QUA8QUAxBcAxBcAEF8AEF8AQHwBQHwBQHwBAPEFAPEFAMQXAMQXABBfABBfABBfAEB8AUB8AQDxBQDxBQDEFwDEFwDEFwAQXwAQXwBAfAFAfAEA8QUA8QUA8QUAxBcAxBcAEF8AEF8AQHwBQHwBQHwBAPEFAPEFAMQXAMQXABBfABBfAEipfHHhcFVKjrFjG1bj1IeLbh3oeffaAzF5YyTN3rt/vRLnP/+hZNlb1h7uShNfAHrTjzPD8e5HrTQ18tkZAMQXAMQXABBfABBfAEB8AUB8AQDxBQDxBQDxBQDEFwDEFwAQXwAQXwBAfAFAfAFAfAEA8QUA8QUAxBcAxBcAEF8AEF8AEF8AQHwBQHwBAPEFAPEFAMQXAMQXAMQXABBfABBfAEB8AUB8AQDxBQDxBQDxBQDEFwDEFwAQXwAQXwBAfAFAfAFAfAEA8QUA8QUAxBcAxBcAEF8AEF8AEF8AQHwBQHwBAPEFAPEFAMQXAMQXAHJqOIIaWxqNmD2QZ+/IYsS+6Tx7F5sRt/bn2dvsRLw9471GfOlx3eGI1qE8e7f+kSu+3fW57veN38SX2vDZGQDEFwDEFwAQXwAQXwBAfAFAfAEA8QUA8QUA8QUAxBcAxBcAEF8AEF8AQHwBQHwBQHwBAPEFAPEFAMQXAMQXABBfABBfABBfAEB8AUB8AQDxBQDxBQDEFwDEFwDEFwAQXwAQXwBAfAFAfAEA8QUA8QUA8QUAxBcAxBcAEF8AEF8AQHwBQHwBQHwBAPEFAPEFAMQXAMQXABBfABBfABBfAEB8AUB8AQDxBQDxBQDEFwDEFwDEFwAQXwAQXwBAfAFAfAEA8QUA8QUA8QUAxBcAxBcAEF8AEF8AQHwBQHwBQHwBAPEFAPEFAMQXAMQXABBfABBfABBfAEB8AUB8AQDxBQDxBQDEFwDEFwAQXwAQXwAQXwBAfAFAfAEA8QUA8QUAxBcAxBcAxBcAEF8AEF8AQHwBQHwBAPEFAPEFAPEFAMQXAMQXABBfABBfAEB8AUB8AUB8AQDxBQDxBQDEFwDEFwAQXwAQXwAQXwBAfAGgHhqOoMZGFiPe/y7P3qFurvsd7eS63+Fl7zTiS5/EaN+0c6hzjNwv9CWfnQFAfAFAfAEA8QUA8QUAxBcAxBcAEF8AEF8AEF8AQHwBQHwBAPEFAPEFAMQXAMQXAMQXABBfABBfAEB8AUB8AQDxBQDxBQDxBQDEFwDEFwAQXwAQXwBAfAFAfAFAfAEA8QUA8QUAxBcAxBcAEF8AEF8AEF8AQHwBQHwBAPEFAPEFAMQXAMQXAMQXABBfABBfAEB8AUB8AQDxBQDxBQDxBQDEFwDEFwAQXwAQXwBAfAFAfAEgp3Lu3HtVlJJi7LZN/8bZMwtuHfrRs40RSwfTzF14sBzT139Ns/f+/EB8/9NreeJbVVWasccnjlWTl+b8iEE/erIj4u9P0sy9e7sdlz+76d5rymdnABBfABBfAEB8AUB8AQDxBQDxBQDEFwDEFwDEFwAQXwAQXwBAfAFAfAEA8QUA8QUA8QUAxBcAxBcAEF8AEF8AQHwBQHwBQHwBAPEFAPEFAMQXAMQXABBfABBfABBfAEB8AUB8AQDxBQDxBQDEFwDEFwDEFwAQXwAQXwBAfAFAfAEA8QUA8QUA8QUAxBcAxBcAEF8AEF8AQHwBQHwBQHwBAPEFAPEFAMQXAMQXABBfABBfAMipcXr3RFWSjN3eHIjJ81vSXG5zbCiOnNiTZm+n3Y2pb35Js3e5RNxO9Pd5/epg7O228txvZ0Wh6hzf3WuJ1j5qROvahjRzt41vjCNH30mzt/vnQrSuzafZ2y4RF+9czfLfOfa/OfHPyurcOj/b1IHPzgAgvgAgvgCA+AKA+AIA4gsA4gsAiC8AiC8AiC8AIL4AIL4AgPgCgPgCAOILAOILAOILAIgvAIgvACC+ACC+AID4AoD4AoD4AgDiCwDiCwCILwCILwAgvkA/etkRIL4Afq/AwwwA4gsAiC8AiC8AiC8AIL4AIL4AgPgCgPgCAOIL9LP/HAHiC/BirTkCxBcAEF8AEF8AQHwBQHwBQHwBAPEFAPEFAMQXAMQXABBfABBfABBfAEB8AUB8AQDxBQDxBQCeo+EI6utxuxtffzWTZu+DpScxleiJXkn2PC+VGJ9qxD1vNnVQPh0/VTkG6mC+RHx552pxEkCv89kZAMQXAMQXABBfABBfAEB8AUB8AQDxBQDxBQDxBQDEFwDEFwAQXwAQXwBAfAFAfAFAfAEA8QUA8QUAxBcAxBcAEF8AEF8AEF8AQHwBQHwBAPEFAPEFAMQXAMQXAMQXABBfABBfAEB8AUB8AQDxBQDxBQDxBQDEFwDEFwAQXwAQXwBAfAFAfAFAfAEA8QUA8QUAxBcAxBcAEF8AEF8AEF8AQHwBQHwBAPEFAPEFAMQXAMQXAHL6H1Ssl0kjtUY0AAAAAElFTkSuQmCC;" vertex="1" parent="1">
          <mxGeometry x="202.88" y="70" width="99.79" height="100" as="geometry" />
        </mxCell>
        <mxCell id="Q2D4iK-SIeuVyJugIBwV-6" value="" style="shape=image;verticalLabelPosition=bottom;labelBackgroundColor=default;verticalAlign=top;aspect=fixed;imageAspect=0;image=data:image/png,iVBORw0KGgoAAAANSUhEUgAAAbcAAAF1CAYAAABrt6RUAAAACXBIWXMAABJ0AAASdAHeZh94AAAFu2lUWHRYTUw6Y29tLmFkb2JlLnhtcAAAAAAAPD94cGFja2V0IGJlZ2luPSLvu78iIGlkPSJXNU0wTXBDZWhpSHpyZVN6TlRjemtjOWQiPz4gPHg6eG1wbWV0YSB4bWxuczp4PSJhZG9iZTpuczptZXRhLyIgeDp4bXB0az0iQWRvYmUgWE1QIENvcmUgOS4xLWMwMDIgNzkuYTFjZDEyZiwgMjAyNC8xMS8xMS0xOTowODo0NiAgICAgICAgIj4gPHJkZjpSREYgeG1sbnM6cmRmPSJodHRwOi8vd3d3LnczLm9yZy8xOTk5LzAyLzIyLXJkZi1zeW50YXgtbnMjIj4gPHJkZjpEZXNjcmlwdGlvbiByZGY6YWJvdXQ9IiIgeG1sbnM6eG1wPSJodHRwOi8vbnMuYWRvYmUuY29tL3hhcC8xLjAvIiB4bWxuczpkYz0iaHR0cDovL3B1cmwub3JnL2RjL2VsZW1lbnRzLzEuMS8iIHhtbG5zOnBob3Rvc2hvcD0iaHR0cDovL25zLmFkb2JlLmNvbS9waG90b3Nob3AvMS4wLyIgeG1sbnM6eG1wTU09Imh0dHA6Ly9ucy5hZG9iZS5jb20veGFwLzEuMC9tbS8iIHhtbG5zOnN0RXZ0PSJodHRwOi8vbnMuYWRvYmUuY29tL3hhcC8xLjAvc1R5cGUvUmVzb3VyY2VFdmVudCMiIHhtcDpDcmVhdG9yVG9vbD0iQWRvYmUgUGhvdG9zaG9wIDI2LjIgKFdpbmRvd3MpIiB4bXA6Q3JlYXRlRGF0ZT0iMjAyNC0xMi0xOVQxNjoyNToyNC0wNzowMCIgeG1wOk1vZGlmeURhdGU9IjIwMjQtMTItMTlUMTY6NDk6NTktMDc6MDAiIHhtcDpNZXRhZGF0YURhdGU9IjIwMjQtMTItMTlUMTY6NDk6NTktMDc6MDAiIGRjOmZvcm1hdD0iaW1hZ2UvcG5nIiBwaG90b3Nob3A6Q29sb3JNb2RlPSIzIiB4bXBNTTpJbnN0YW5jZUlEPSJ4bXAuaWlkOjkwNjhkMTc3LTJhNWItMzc0OC1hNjE4LWE5NzcwMjg0ZGNjZCIgeG1wTU06RG9jdW1lbnRJRD0ieG1wLmRpZDoxMjRhZDExYi05YjI4LTAzNDAtOTU4MC0zODMxMmViMDliMmYiIHhtcE1NOk9yaWdpbmFsRG9jdW1lbnRJRD0ieG1wLmRpZDoxMjRhZDExYi05YjI4LTAzNDAtOTU4MC0zODMxMmViMDliMmYiPiA8eG1wTU06SGlzdG9yeT4gPHJkZjpTZXE+IDxyZGY6bGkgc3RFdnQ6YWN0aW9uPSJjcmVhdGVkIiBzdEV2dDppbnN0YW5jZUlEPSJ4bXAuaWlkOjEyNGFkMTFiLTliMjgtMDM0MC05NTgwLTM4MzEyZWIwOWIyZiIgc3RFdnQ6d2hlbj0iMjAyNC0xMi0xOVQxNjoyNToyNC0wNzowMCIgc3RFdnQ6c29mdHdhcmVBZ2VudD0iQWRvYmUgUGhvdG9zaG9wIDI2LjIgKFdpbmRvd3MpIi8+IDxyZGY6bGkgc3RFdnQ6YWN0aW9uPSJzYXZlZCIgc3RFdnQ6aW5zdGFuY2VJRD0ieG1wLmlpZDo5MDY4ZDE3Ny0yYTViLTM3NDgtYTYxOC1hOTc3MDI4NGRjY2QiIHN0RXZ0OndoZW49IjIwMjQtMTItMTlUMTY6NDk6NTktMDc6MDAiIHN0RXZ0OnNvZnR3YXJlQWdlbnQ9IkFkb2JlIFBob3Rvc2hvcCAyNi4yIChXaW5kb3dzKSIgc3RFdnQ6Y2hhbmdlZD0iLyIvPiA8L3JkZjpTZXE+IDwveG1wTU06SGlzdG9yeT4gPC9yZGY6RGVzY3JpcHRpb24+IDwvcmRmOlJERj4gPC94OnhtcG1ldGE+IDw/eHBhY2tldCBlbmQ9InIiPz6OGYe+AAAGuUlEQVR42u3bX2iWVRzA8XPilVjIlrY2t+WEUolhXSiLgV4MEkFaEdFNFBLMiiAo8WIIxSoMNCT/oKQSBe0yopgQZIUQpWIihXkRZY6pa2NWahcVYacD2VVCkw1695zPB35323jPOXueL8/DFlNKAQCq5AZbAIC4AYC4AYC4AYC4AYC4ASBuACBuACBuACBuACBuAIgbAIgbAIgbAIgbAIgbAOIGAOIGAOIGAOIGAOIGAOIGgLgBgLgBgLgBgLgBgLgBIG4AMMvEjY/1xRIWurC1ecuz294acORAvfv2/V1p37sfFfPwsbSz/dCTr+zrndG45UklbF531x3h2KnvossGqHef7B1Mq59+uZj1rum5+5sPj3x150z+TK8lAagccQNA3ABA3ABA3ABA3ABA3AAQNwAQNwAQNwAQNwAQNwDEDQDEDQDEDQDEDQDEDQBxAwBxAwBxAwBxAwBxAwBxA0DcAEDcAEDcAEDcAEDcABA3ABA3ABA3ABA3ABA3AMQNAMQNAMQNAMQNAMQNAHEDAHEDAHEDAHEDAHEDAHEDQNwAQNwAQNwAQNwAQNwAEDcAEDcAEDcAEDcAEDcAxA0AxA0AxA0AxA0AxO1aRscvFHWwOzY+/mJJ6z1zYE9yOVfX7oH+IbvA9aiVstCJny6FGGMxN8Ceu5aE50IoJnBjkz+H2ws639L0rui6/IxtwJMbAOIGAOIGAOIGAOIGAOIGAOIGgLgBgLgBgLgBgLgBgLgBIG4AIG4AIG4AIG4AIG4AiBsAiBsAiBsAiBsAiBsA4gYA4gYA4gYA4gYA4gYA4gaAuAGAuAGAuAGAuAGAuAEgbgAgbgAgbgAgbgAgbgCIGwCIGwCIGwCIGwCIGwCIGwDiBgDiBgDiBgDiBgDiBoC4AYC4AYC4AYC4AYC4ASBuACBuACBuACBuADBFNVtQTSNjk0Wtd/jw1007t24+W8p6T58Z2b5r7xuDxRzwnIYLYfREKma9Te1uYuLGtYz/eDHEGIu5Gazs6T772Ws7G0tZ76eHjw7muBV0p7rxYri5o5z1zv3eTWyavJYEQNwAQNwAQNwAQNwAQNwAEDcAEDcAEDcAEDcAEDcAxA0AxA0AxA0AxA0AxA0AcQMAcQMAcQMAcQMAcQMAcQNA3ABA3ABA3ABA3ABA3AAQNwAQNwAQNwAQNwAQNwDEDQDEDQDEDQDEDQDEDQBxAwBxAwBxAwBxAwBxAwBxA0DcAEDcAEDcAEDcAEDcABA3ABA3ABA3ABA3ABA3qKAYo00AcQNA3ABA3ABA3ABA3ABgquLugf53Sljo6A+Tj7z69vAfjrya2lpbwkMP3PdSKesdG5/oeO/AB+tLWW9H24LwYN/aqp7vnDxr8iz/54HjploIixpn7bPH73m+zHM+z59T+YbO1lsevn/D1hn9E+CYUiri4vhiaEu6Z90mFQDq3r3dy8LHx076f49p8FoSAHEDAHEDAHEDAHEDAHEDQNwAQNwAQNwAQNwAQNwAEDcAEDcAEDcAEDcAEDcAxA0AxA0AxA0AxA0AxA0AxA0AcQMAcQMAcQMAcQMAcQNA3ABA3ABA3ABA3ABA3AAQNwAQNwAQNwAQNwAQNwDEDQDEDQDEDQDEDQDEDQDEDQBxAwBxAwBxAwBxAwBxA0DcAEDcAEDcAEDcAEDcABA3ABA3ABA3ABA3ABA3AMpWK2Whi9puDa9veuLgf3xZQ57mPC15Gq/uTyz49+O3PCN5zue5Us8f9PS5ibXbhoavuKSraWlnW9jwaN/BCi1pXp5lV+85/9LRMt+hT1NMKdkFZr3P39ycVvW/YCMqqndF1+VDx0812QmmymtJAMQNAMQNAMQNAMQNAMQNAHEDAHEDAHEDAHEDAHEDQNwAQNwAQNwAQNwAQNwAEDcAEDcAEDcAEDcAEDcAEDcAxA0AxA0AxA0AxA0AxA0AcQMAcQMAcQMAcQMAcQNA3ABA3ABA3ABA3ABA3AAQNwAQNwAQNwAQNwAQNwAQNwDEDQDEDQDEDQDEDQDEDQBxAwBxAwBxAwBxAwBxA0DcAEDcAEDcAEDcAEDcAChbzRZQBYtvWxD2P//UiTr8aA15FuaZO0u39tc85/L88n9+iPbmecv9lnM9YkrJLgBQKV5LAiBuACBuACBuACBuACBuAIgbAIgbAIgbAIgbAIgbAOIGAOIGAOIGAOIGAOIGgLgBgLgBgLgBgLgBgLgBgLgBIG4AIG4AIG4AIG4AIG4AiBsAiBsAiBsAiBsAiBsA4gYA4gYA4gYA4gYA4gaAuAGAuAGAuAGAuAGAuAHA3/4CujqVnomZsKUAAAAASUVORK5CYII=;" vertex="1" parent="1">
          <mxGeometry x="202.25" y="445.04" width="100" height="84.96" as="geometry" />
        </mxCell>
        <mxCell id="Q2D4iK-SIeuVyJugIBwV-2" value="" style="shape=image;verticalLabelPosition=bottom;labelBackgroundColor=default;verticalAlign=top;aspect=fixed;imageAspect=0;image=data:image/png,iVBORw0KGgoAAAANSUhEUgAAAa4AAAHiCAYAAACwbyiNAAAACXBIWXMAABJ0AAASdAHeZh94AAAE7mlUWHRYTUw6Y29tLmFkb2JlLnhtcAAAAAAAPD94cGFja2V0IGJlZ2luPSLvu78iIGlkPSJXNU0wTXBDZWhpSHpyZVN6TlRjemtjOWQiPz4gPHg6eG1wbWV0YSB4bWxuczp4PSJhZG9iZTpuczptZXRhLyIgeDp4bXB0az0iQWRvYmUgWE1QIENvcmUgOS4xLWMwMDIgNzkuYTFjZDEyZiwgMjAyNC8xMS8xMS0xOTowODo0NiAgICAgICAgIj4gPHJkZjpSREYgeG1sbnM6cmRmPSJodHRwOi8vd3d3LnczLm9yZy8xOTk5LzAyLzIyLXJkZi1zeW50YXgtbnMjIj4gPHJkZjpEZXNjcmlwdGlvbiByZGY6YWJvdXQ9IiIgeG1sbnM6eG1wPSJodHRwOi8vbnMuYWRvYmUuY29tL3hhcC8xLjAvIiB4bWxuczpkYz0iaHR0cDovL3B1cmwub3JnL2RjL2VsZW1lbnRzLzEuMS8iIHhtbG5zOnBob3Rvc2hvcD0iaHR0cDovL25zLmFkb2JlLmNvbS9waG90b3Nob3AvMS4wLyIgeG1sbnM6eG1wTU09Imh0dHA6Ly9ucy5hZG9iZS5jb20veGFwLzEuMC9tbS8iIHhtbG5zOnN0RXZ0PSJodHRwOi8vbnMuYWRvYmUuY29tL3hhcC8xLjAvc1R5cGUvUmVzb3VyY2VFdmVudCMiIHhtcDpDcmVhdG9yVG9vbD0iQWRvYmUgUGhvdG9zaG9wIDI2LjIgKFdpbmRvd3MpIiB4bXA6Q3JlYXRlRGF0ZT0iMjAyNC0xMi0xOVQxNjoyNjozMi0wNzowMCIgeG1wOk1vZGlmeURhdGU9IjIwMjQtMTItMTlUMTY6Mzg6MzgtMDc6MDAiIHhtcDpNZXRhZGF0YURhdGU9IjIwMjQtMTItMTlUMTY6Mzg6MzgtMDc6MDAiIGRjOmZvcm1hdD0iaW1hZ2UvcG5nIiBwaG90b3Nob3A6Q29sb3JNb2RlPSIzIiB4bXBNTTpJbnN0YW5jZUlEPSJ4bXAuaWlkOmM0M2M1NDM4LTM1MjYtYjA0NC1hNzRkLTM2ZDdiMWE3YjI4MiIgeG1wTU06RG9jdW1lbnRJRD0ieG1wLmRpZDpjNDNjNTQzOC0zNTI2LWIwNDQtYTc0ZC0zNmQ3YjFhN2IyODIiIHhtcE1NOk9yaWdpbmFsRG9jdW1lbnRJRD0ieG1wLmRpZDpjNDNjNTQzOC0zNTI2LWIwNDQtYTc0ZC0zNmQ3YjFhN2IyODIiPiA8eG1wTU06SGlzdG9yeT4gPHJkZjpTZXE+IDxyZGY6bGkgc3RFdnQ6YWN0aW9uPSJjcmVhdGVkIiBzdEV2dDppbnN0YW5jZUlEPSJ4bXAuaWlkOmM0M2M1NDM4LTM1MjYtYjA0NC1hNzRkLTM2ZDdiMWE3YjI4MiIgc3RFdnQ6d2hlbj0iMjAyNC0xMi0xOVQxNjoyNjozMi0wNzowMCIgc3RFdnQ6c29mdHdhcmVBZ2VudD0iQWRvYmUgUGhvdG9zaG9wIDI2LjIgKFdpbmRvd3MpIi8+IDwvcmRmOlNlcT4gPC94bXBNTTpIaXN0b3J5PiA8L3JkZjpEZXNjcmlwdGlvbj4gPC9yZGY6UkRGPiA8L3g6eG1wbWV0YT4gPD94cGFja2V0IGVuZD0iciI/Piw6drEAAAgBSURBVHja7dnfa1d1HMfx1xGFulG25mbNpcEUC+quYFD0A5S6T6hbXXOaWm1GeROKV8ZugqAfJkRFf0EM3I2J4T8wKJamtlzNNhu7qM3ldvoLiqCLPOfzePwH79c53z05bH1d16G9qqp6IMlYX+59+WC2l3N4X2ey72kvQEtduz6djz/9vLJEmdaboPWWkyz35p4cT385V/f2JyNHPf2W+vqbS0YQLlrsTpIVMwDCRVOsJlkzAyBcNIn/BQDCRaOitWoGQLhoirUkf5oBEC6aFK5FMwDCRVOsJPnJDIBw0Qh1Xa9VVXXVEoBw0SRTJgCEiyaZMwEgXDTJHRMAwkVj1HVdD1SdhgCECwCECwCECwDhAgDhAgDhAkC4AEC4AEC4ABAuABAuABAuAIQLAIQLAIQLAOECAOECAOECQLgAQLgAQLgAEC4AEC4AEC4AhAsAhAsAhAsA4QIA4QIA4QJAuABAuABAuAAQLgAQLgAQLgCECwCECwCECwDhAgDhAgDhAkC4AEC4AEC4ABAuABAu/n/TWcpb+baYe7dlfQ4V9Hzn5udz/sKFYu5dvr2Sd0+9Uxdz8O/Xkh+/KObcy7PJmfN1JVyFm6mXqpLufXLgibqkcP22sJDxcxPF3Ltr5868fWy0nAc8fzG5VE64JiZ9cQHQIsIFgHABgHABgHABIFwAIFwAIFwACBcACBcACBcAwgUAwgUAwgWAcAGAcAGAcAEgXAAgXAAgXAAIFwAIFwAIFwDCBQDCBQDCBYBwAYBwAYBwASBcACBcACBcAAgXAAgXAAgXAMIFAMIFAMIFgHABgHABgHABIFwAIFwAIFwACBcACBcACBcAwgUAwgUAwgWAcAGAcAGAcAEgXAAgXAAgXAAIFwAIFwAIF/9s+4N9q0eGB9eVcu/hof1FPd/urq68tPfFYu7t7Ogo6vlenk0++rKce6/PJ3uEi/u39KwbPTxsiJbq6OjI87t3G6Klpm8lY+N1ZQnhAkC4AEC4AEC4ABAuABAuABAuAIQLAIQLAIQLAOECAOECAOECQLgAQLgAQLgAEC4AEC4AEC4AhAsAhAsAhAsA4QIA4QIA4QJAuABAuABAuAAQLgAQLgAQLgCECwCECwCECwDhAgDhAgDhAkC4AEC4AEC4ABAuABAuABAuAIQLAIQLAIQLAOECAOECAOECQLgAQLgAQLgAEC4AEC4AEC4AhAsAhAsAhAsA4SrAtr6tK2+8emBDKfe+fmjI2w4IV5P1dG/e4I85gHABgHABgHABIFwAIFwAIFwACBcACBcACBcAwgUAwgUAwgWAcAGAcAGAcAEgXAAgXAAgXAAIFwAIFwAIFwDCBQDCBQDCBYBwAYBwAYBwASBcACBcACBcAAgXAAgXAAgXAMIFAMIFAMIFgHABgHABgHABIFwAIFwAIFwACBcACBcACBcAwgUAwgUAwgWAcAGAcAGAcAEgXAAgXAAgXAAIFwAIFwAIFwDCBQB3ebj6tvYuvnn00MZSDh89ctDTB2hyuLq77tt45MD+VFVlFQDu/nABgHABgHABIFwAIFwAIFwACBcACBcACBcACBcAwgUAwgUAwgWAcAGAcAGAcAEgXAAgXAAgXAAIFwAIFwAIFwDCBQDCBQDCBYBwAYBwAYBwASBcACBcACBcAAgXAAgXAAgXAMIFAMIFAMIFgHABgHABgHABIFwAIFwAIFwACBcACBcACBcAwgUAwgUAwgWAcAGAcAGAcAEgXAAgXAAgXAAIFwAIFwAIFwDCBQDCBQDCBYBwAYBwAYBwASBcACBcACBcAAgXAAgXAAgXAMIFAMIFAMIFgHABgHABgHABIFwAIFwAIFwACBcACBcACBcAwgUAwgUAwgWAcAGAcAGAcAEgXAAgXAAgXAAIFwAIFwAIFwDCZQIAhAsAhAsAhAsA4QIA4QIA4QJAuABAuABAuAAQLgAQLgAQLgCECwCECwCECwDhAgDhAgDhAkC4AEC4AEC4ABAuABAuABCuwv0xnVx5v5hzf7iZjI177G21Y0sy8kI59+5ams2H+/bWpdz73Uzy3rm6Eq7S3Z5Lrn9WzLmz3ycfnP37F59me/aRqh55uJx7e5MMP1fOvROTvrgAaBHhAkC4AEC4AEC4ABAuABAuABAuAIQLAIQLAIQLAOECAOECAOECQLgAQLgAQLgAEC4AEC4AEC4AhAsAhAsAhAsA4QIA4QIA4QJAuABAuABAuAAQLgAQLgAQLgCECwCECwCECwDhAgDhAgDhAkC4AEC4AEC4ABAuABAuABAuAIQLAIQLAIQLAOECAOECAOECQLgAQLgAQLgAEC4AEC4AEC4AhAsAhAsA/nu4pm/MnBh67diJKpVVWuihTXM5/ng59/b3JGcGq7qUe6/MJqe/qov58U79kvmhs+nyy26nGwvJntP/Ilxz87dOJjlpsnYa2FHVJYWrZ1PyyjPl3Htxqqz3+eeFerNftS8uABAuABAuAIQLAIQLAIQLAOECAOECAOECAOECQLgAQLgAQLgAEC4AEC4AEC4AhAsAhAsAhAsA4QIA4QIA4QJAuABAuABAuAAQLgAQLgAQLgCECwCECwCECwDhAgDhAgDhAkC4AEC4AEC4ABAuABAuABAuAIQLAIQLAIQLAOECAOECAOECQLgAQLgAQLgAEC4AEC4AEC4AhAsAhAsAhAsA4QIA4QIA4QJAuGiBq79mcvCTPGqJdppdTJ46ZQeEixa5uVg/ZgWgDf4CyH2zPa/eSHcAAAAASUVORK5CYII=;" vertex="1" parent="1">
          <mxGeometry x="202.25" y="570" width="89.21" height="100" as="geometry" />
        </mxCell>
      </root>
    </mxGraphModel>
  </diagram>
</mxfile>
